<svg width="48" height="47" viewBox="0 0 48 47" fill="none" xmlns="http://www.w3.org/2000/svg">
<path d="M35.25 18.75V21.75C35.25 22.5784 34.5784 23.25 33.75 23.25H30.75" stroke="white" stroke-width="1.5" stroke-linecap="round" stroke-linejoin="round"/>
<path d="M30.75 0.75H33.75C34.5784 0.75 35.25 1.42157 35.25 2.25V5.25" stroke="white" stroke-width="1.5" stroke-linecap="round" stroke-linejoin="round"/>
<path d="M12.75 5.25V2.25C12.75 1.42157 13.4216 0.75 14.25 0.75H17.25" stroke="white" stroke-width="1.5" stroke-linecap="round" stroke-linejoin="round"/>
<path d="M17.25 23.25H14.25C13.4216 23.25 12.75 22.5784 12.75 21.75V18.75" stroke="white" stroke-width="1.5" stroke-linecap="round" stroke-linejoin="round"/>
<path d="M17.291 19.5C17.6738 16.0838 20.5625 13.5009 24 13.5009C27.4375 13.5009 30.3262 16.0838 30.709 19.5" stroke="white" stroke-width="1.5" stroke-linecap="round" stroke-linejoin="round"/>
<path d="M19.876 7.98596V8.98596C19.9148 10.1374 19.6162 11.275 19.017 12.259" stroke="white" stroke-width="1.5" stroke-linecap="round" stroke-linejoin="round"/>
<path d="M28.124 7.98596V8.98596C28.0852 10.1374 28.3838 11.275 28.983 12.259" stroke="white" stroke-width="1.5" stroke-linecap="round" stroke-linejoin="round"/>
<path d="M19.888 8.20505C21.4684 8.19384 22.9672 7.50132 24 6.30505C25.0328 7.50132 26.5316 8.19384 28.112 8.20505" stroke="white" stroke-width="1.5" stroke-linecap="round" stroke-linejoin="round"/>
<path fill-rule="evenodd" clip-rule="evenodd" d="M24 12C26.2782 12 28.125 10.1532 28.125 7.875C28.125 5.59683 26.2782 3.75 24 3.75C21.7218 3.75 19.875 5.59683 19.875 7.875C19.875 10.1532 21.7218 12 24 12Z" stroke="white" stroke-width="1.5" stroke-linecap="round" stroke-linejoin="round"/>
</svg>
